# xmcd
#
# Track frame offsets:
#	150
#	15126
#	30010
#	42635
#	57859
#	72404
#	87718
#	100509
#	114640
#	129259
#	140765
#	156881
#	172149
#	186494
#
# Disc length: 2678 seconds
#
# Revision: 1
# Processed by: cddbd v1.5.2PL0 Copyright (c) Steve Scherf et al.
# Submitted via: audiograbber 1.83.01
#
DISCID=bd0a740e
DTITLE=Kikki Danielsson - I Mitt Hjärta
DYEAR=1999
DGENRE=Danseband
TTITLE0=I Mitt Hjärta Brinner Lågan
TTITLE1=All Min Kärlek
TTITLE2=Har Du Glömt
TTITLE3=I Morgondagens Ljus
TTITLE4=Ung, Blåögd Och Blyg
TTITLE5=Jag Trodde Änglarna Fanns
TTITLE6=Ta En Dag I Taget
TTITLE7=Et Vänligt Ord
TTITLE8=Jag Älskar Dig
TTITLE9=Den Enda Sanna Mannen
TTITLE10=Dagar Som Kommer Och Går
TTITLE11=Min Egen Väg
TTITLE12=Et Hus Med Många Rum
TTITLE13=Tjejer
EXTD=
EXTT0=
EXTT1=
EXTT2=
EXTT3=
EXTT4=
EXTT5=
EXTT6=
EXTT7=
EXTT8=
EXTT9=
EXTT10=
EXTT11=
EXTT12=
EXTT13=
PLAYORDER=
